<?xml version="1.0" standalone="no"?>
<!DOCTYPE svg PUBLIC "-//W3C//DTD SVG 20010904//EN"
 "http://www.w3.org/TR/2001/REC-SVG-20010904/DTD/svg10.dtd">
<svg version="1.0" xmlns="http://www.w3.org/2000/svg"
 width="1212.000000pt" height="1280.000000pt" viewBox="0 0 1212.000000 1280.000000"
 preserveAspectRatio="xMidYMid meet">
<g transform="translate(0.000000,1280.000000) scale(0.100000,-0.100000)"
fill="#009688" stroke="none">
<path d="M4161 12158 c-167 -354 -305 -644 -305 -645 -1 -1 -69 18 -152 42
-499 145 -932 119 -1388 -81 -264 -116 -536 -339 -730 -597 -53 -71 -86 -107
-96 -104 -8 2 -267 139 -575 305 -395 213 -562 298 -567 289 -6 -9 -25 -3 -70
21 -34 19 -64 30 -65 25 -2 -4 -50 -107 -108 -227 -58 -121 -104 -221 -102
-222 1 -2 286 -154 632 -338 347 -184 629 -340 627 -346 -1 -6 -13 -52 -26
-103 -72 -276 -96 -632 -61 -876 45 -305 171 -640 334 -887 110 -167 323 -394
496 -529 28 -22 52 -40 54 -42 3 -1 -441 -916 -580 -1195 l-49 -97 221 -122
c162 -90 223 -119 231 -111 8 8 27 3 70 -20 34 -18 62 -27 67 -22 4 5 144 293
311 639 167 347 305 632 306 634 2 2 65 -14 141 -37 243 -71 343 -86 573 -86
191 1 289 14 483 64 448 115 840 375 1088 720 35 49 67 89 70 89 4 1 258 -136
564 -304 307 -168 561 -305 566 -305 4 0 9 5 11 11 3 8 26 0 65 -22 34 -19 64
-31 67 -29 3 3 52 107 110 230 l104 224 -626 337 c-379 203 -626 342 -626 351
1 7 13 52 27 99 86 293 96 663 26 999 -70 335 -213 653 -410 911 -87 115 -241
271 -348 354 -49 39 -90 73 -90 77 -1 4 136 292 304 640 168 348 304 636 302
642 -2 5 -100 62 -217 127 -165 91 -217 115 -223 104 -6 -11 -20 -7 -68 21
-34 19 -62 34 -63 34 -1 0 -138 -289 -305 -642z m-642 -1084 c274 -49 614
-269 815 -529 417 -537 468 -1262 130 -1849 -296 -516 -905 -795 -1506 -691
-203 36 -497 205 -690 398 -107 107 -225 281 -308 451 -112 230 -161 439 -161
676 0 457 156 838 478 1166 102 104 204 177 347 245 292 139 601 185 895 133z"/>
<path d="M9530 12194 c-535 -62 -959 -220 -1365 -512 -184 -133 -402 -340
-544 -517 -80 -100 -208 -294 -258 -391 -22 -43 -44 -74 -53 -74 -8 1 -131 24
-273 53 -230 47 -259 51 -271 37 -38 -43 -265 -373 -261 -379 2 -4 36 -13 75
-20 l71 -13 -27 -35 c-14 -19 -24 -36 -23 -37 2 -2 121 -27 264 -56 143 -29
262 -54 263 -55 2 -2 -8 -66 -22 -142 -14 -76 -28 -155 -31 -176 -5 -34 -9
-38 -28 -34 -79 19 -448 89 -451 86 -13 -16 -276 -391 -276 -393 0 -2 34 -9
75 -16 41 -7 75 -15 75 -17 0 -3 -9 -18 -21 -35 -12 -16 -19 -32 -15 -35 3 -3
145 -34 316 -68 171 -35 312 -64 314 -66 1 -2 8 -47 15 -99 54 -421 234 -868
495 -1230 153 -213 466 -532 676 -689 833 -622 1915 -698 2835 -198 l100 54
63 308 c34 170 60 310 58 313 -3 2 -34 -21 -70 -52 -37 -31 -68 -56 -70 -56
-2 0 6 48 19 108 13 59 22 108 21 109 -1 1 -35 -25 -76 -59 -313 -257 -726
-434 -1135 -487 -335 -43 -684 -6 -1010 109 -346 122 -677 343 -876 586 -211
259 -368 576 -444 898 -26 111 -51 263 -44 270 2 2 191 -33 419 -79 1947 -393
2505 -505 2519 -505 15 0 280 363 281 385 1 6 -30 16 -67 23 -37 8 -70 15 -71
17 -2 2 6 17 19 34 12 17 20 33 17 36 -4 4 -1199 247 -2598 527 -278 56 -508
104 -513 108 -13 11 62 350 78 350 5 0 2206 -443 3054 -614 206 -42 375 -75
376 -74 13 15 275 388 275 392 0 2 -26 10 -57 16 -100 20 -97 17 -67 56 20 25
23 35 13 38 -8 3 -196 41 -419 86 -223 45 -940 189 -1595 321 -654 132 -1227
247 -1272 256 -46 9 -83 20 -83 24 0 18 130 198 216 298 349 409 859 683 1404
757 135 18 425 18 560 0 446 -60 879 -251 1180 -521 135 -120 285 -324 406
-550 32 -59 45 -75 50 -62 11 29 23 19 56 -48 18 -36 35 -65 38 -65 3 0 67 88
143 195 l138 194 -72 108 c-156 234 -346 448 -591 665 -371 329 -826 540
-1344 623 -94 16 -501 29 -584 19z"/>
<path d="M9000 6279 c-267 -21 -563 -102 -804 -219 -471 -229 -807 -640 -901
-1100 -49 -238 -31 -536 50 -814 55 -191 148 -390 318 -684 55 -96 96 -177 91
-181 -5 -4 -128 -38 -274 -75 -146 -37 -270 -69 -277 -71 -8 -3 10 -87 59
-277 38 -150 71 -274 73 -276 1 -2 28 3 59 11 61 16 60 17 71 -31 6 -28 10
-33 28 -28 42 12 608 156 611 156 8 0 82 -176 111 -264 119 -364 124 -747 14
-1063 -78 -224 -217 -460 -374 -637 -48 -53 -85 -100 -83 -105 2 -4 95 -135
208 -290 l204 -281 31 30 31 30 38 -55 38 -55 97 91 c301 286 682 493 1046
567 205 43 288 46 715 28 217 -9 447 -16 510 -16 408 1 755 136 1180 460 l80
61 -181 272 c-100 150 -185 276 -189 280 -4 4 -21 -3 -38 -17 -16 -14 -32 -26
-35 -26 -3 0 -19 23 -37 50 -22 34 -36 48 -44 42 -6 -5 -46 -37 -89 -70 -191
-151 -412 -274 -560 -312 -115 -29 -311 -49 -601 -60 -508 -20 -668 -30 -796
-50 -162 -25 -333 -69 -445 -114 -48 -19 -84 -30 -81 -23 187 421 249 675 249
1022 0 295 -50 495 -165 663 -17 24 -28 45 -26 47 1 2 181 49 398 104 618 158
655 168 653 177 -5 29 -136 540 -138 542 -2 2 -27 -3 -56 -11 -29 -9 -56 -14
-60 -12 -4 3 -10 21 -13 40 -6 28 -11 35 -24 31 -9 -3 -170 -44 -357 -91 -187
-48 -424 -109 -526 -135 l-186 -48 -69 117 c-165 280 -315 611 -370 819 -34
127 -43 303 -21 417 35 186 128 357 271 501 131 130 279 212 482 265 77 21
112 24 259 24 195 0 239 -10 351 -77 196 -117 341 -282 450 -513 l45 -94 45
20 c25 10 47 19 49 19 2 0 13 -21 24 -46 11 -25 24 -43 28 -41 5 3 147 64 317
136 170 72 311 132 313 134 2 2 -13 39 -33 83 -172 373 -432 655 -749 813
-122 61 -378 152 -508 180 -95 21 -290 42 -357 39 -19 0 -78 -4 -130 -9z"/>
<path d="M3461 5973 c-29 -142 -57 -280 -63 -307 l-10 -49 -92 7 c-166 12
-460 -28 -658 -90 -528 -166 -850 -494 -954 -974 -28 -129 -26 -395 4 -508 63
-240 208 -449 472 -680 151 -132 400 -280 617 -368 52 -21 72 -33 69 -44 -3
-8 -46 -222 -97 -475 -50 -253 -95 -463 -98 -468 -4 -4 -42 17 -86 45 -64 44
-85 64 -116 117 -65 109 -109 279 -109 426 0 103 -4 110 -58 121 -46 9 -47 9
-50 52 -2 23 -5 42 -6 42 -2 0 -212 43 -467 95 -254 52 -465 92 -468 89 -3 -3
-8 -90 -10 -192 -4 -221 16 -362 74 -537 88 -264 221 -469 464 -717 202 -207
361 -333 544 -428 53 -28 97 -55 97 -59 0 -5 -25 -131 -55 -280 -30 -149 -55
-276 -55 -280 0 -5 21 -12 46 -16 71 -10 73 -11 63 -53 -4 -20 -7 -38 -5 -39
9 -9 881 -182 886 -175 4 4 33 139 66 300 32 161 61 297 64 301 3 4 50 3 105
-2 122 -12 334 2 485 33 202 41 421 126 586 226 362 219 571 497 654 869 27
118 33 360 12 460 -36 167 -98 305 -197 437 -76 101 -274 295 -387 379 -157
117 -376 231 -611 319 -77 29 -88 36 -85 54 2 12 42 207 88 434 67 325 88 412
100 412 24 0 112 -44 146 -73 40 -34 108 -171 129 -257 8 -36 15 -100 15 -142
0 -84 -3 -80 74 -94 38 -7 38 -7 33 -46 -3 -25 -1 -41 6 -44 10 -3 403 -84
831 -171 66 -13 79 -14 87 -2 28 47 32 365 6 499 -40 204 -129 401 -258 574
-147 197 -416 446 -605 559 -74 44 -264 137 -281 137 -7 0 -13 4 -13 9 0 9 97
490 106 527 5 19 -1 22 -55 33 -34 7 -61 15 -61 19 0 4 4 22 9 39 8 26 6 33
-7 37 -9 3 -172 37 -362 75 -190 38 -378 77 -418 85 -40 9 -77 16 -81 16 -4 0
-31 -116 -60 -257z m-275 -1370 c-2 -10 -33 -159 -67 -330 -54 -266 -66 -313
-81 -313 -9 0 -46 10 -81 23 -161 59 -201 110 -202 257 0 100 20 150 90 228
67 74 224 149 318 151 22 1 27 -3 23 -16z m730 -2024 c93 -29 163 -61 229
-104 44 -30 61 -49 87 -103 30 -60 33 -75 33 -152 -1 -73 -5 -93 -29 -139 -73
-142 -254 -239 -480 -258 l-79 -6 6 24 c3 13 38 184 77 379 74 368 77 380 84
380 2 0 35 -9 72 -21z"/>
</g>
</svg>
