<svg xmlns="http://www.w3.org/2000/svg" width="224" height="36" viewBox="0 0 224 36"><g><g><g fill="#fff"><path d="M88.1 24.4c1.2-4.5 2.4-8.8 3.6-13 .2-.7.7-1.5 1.2-1.8 1.2-.7 2.3.1 2.7 1.5 1.1 4.1 2.3 8.2 3.5 12.3.1.2.1.3.4.9.9-3.3 1.8-6.3 2.6-9.3.4-1.4.7-2.8 1.1-4.2.3-1.1 1.1-1.6 2-1.2 1 .4 1.2 1.1.9 2.1-1.5 5.1-2.9 10.2-4.4 15.3-.3 1.2-.9 2-2.3 2-1.3 0-1.9-.9-2.2-2.1-1.1-3.9-2.3-7.7-3.6-11.9-.6 2.1-1.2 4-1.7 5.9-.6 2.1-1.3 4.2-1.9 6.3-.3 1-.9 1.6-2 1.7-1.1 0-1.9-.6-2.2-1.6-1.5-5.2-3-10.5-4.5-15.7-.3-1.2.1-2 1-2.1 1.1-.2 1.6.4 1.9 1.4 1.1 4.1 2.3 8.3 3.4 12.4.2.2.3.5.5 1.1zM172.1 11.2c1.9-1.5 3.9-1.8 6-1.8 2.9.1 5.1 1.9 5.3 4.8.2 4.3.2 8.6.2 12.9 0 1.1-.8 1.8-1.7 1.7-.9-.1-1.6-.8-1.6-2 0-3.4 0-6.7 0-10.1 0-3.9-2.5-5.4-6.1-3.7-1.4.6-2.2 1.6-2.1 3.2.1 3.5 0 7 0 10.5 0 1.4-.6 2.1-1.7 2.1-1 0-1.5-.8-1.5-2.1 0-7.8 0-15.6 0-23.4 0-1.3.7-2.1 1.6-2 1 0 1.6.8 1.6 2.1 0 2.5 0 5.1 0 7.8zM137.8 17.6c.6-5.1-2-6.2-6.5-5-.5.2-1.1.6-1.6.5-.5 0-1.3-.2-1.5-.6-.2-.4 0-1.3.3-1.5.9-.6 2-1.1 3-1.2 1.6-.2 3.4-.3 5 0 2.9.5 4.3 2.2 4.5 5.2s.1 5.9.2 8.9c0 1.1.1 2.1 1.2 2.8.3.2.5 1.1.3 1.5s-1 1-1.4.8c-1-.3-2-.9-3.1-1.5-1.9 1.6-4.5 1.9-7.2 1.3-2.9-.6-4.3-2.5-4.3-5.6 0-2.8 1.6-4.7 4.4-5.2 1.2-.2 2.4-.2 3.5-.3 1.1-.1 2.1-.1 3.2-.1zm.2 2.5c-2.1.1-3.9.1-5.7.3-1.6.2-2.4 1.3-2.4 2.9 0 1.7.9 2.8 2.5 3 .8.1 1.7.1 2.6 0 1.3-.2 2.3-.9 2.6-2.2.2-1.3.2-2.5.4-4zM215.5 24.4c1.3-3.9 2.5-7.5 3.7-11.1.3-.9.6-1.7.9-2.6.4-1.1 1.2-1.6 2.2-1.2 1 .4 1.3 1.2.9 2.2-1.4 3.9-2.7 7.7-4.1 11.6-.9 2.4-1.8 4.9-2.9 7.2-1.3 2.7-3.3 4.6-6.4 5-.4.1-.8.1-1.2.1-1-.1-1.5-.6-1.5-1.6 0-.9.5-1.4 1.4-1.6 1-.2 2-.4 2.9-.9 2.2-1.2 2.6-2.8 1.7-5.1-1.8-4.8-3.5-9.6-5.3-14.4-.1-.2-.1-.3-.2-.5-.3-1 0-1.7.9-2.1.9-.4 1.7.1 2.1 1.2 1.5 4.2 2.9 8.3 4.4 12.5.2.4.3.7.5 1.3zM112 20.1c.1 1 0 1.8.2 2.6.4 2.3 2.2 3.6 4.7 3.3 1.3-.2 2.5-.5 3.8-.9.8-.2 1.6-.5 2 .4.5.9 0 1.7-.8 2-3.3 1.5-6.7 2-10 .2-1.8-1-2.7-2.8-2.9-4.7-.2-2.4-.3-4.8-.1-7.1.5-5.1 4.3-7.2 9.1-6.4 3.3.6 5.2 2.9 5.4 6.3 0 .8.1 1.6.1 2.5 0 1.5-.2 1.7-1.7 1.7-2.8 0-5.5 0-8.3 0-.4.1-.8.1-1.5.1zm.1-2.6c2.7 0 5.4 0 8.2 0 .1-1.9.1-3.8-1.7-4.8-1.5-.9-3.3-.9-4.8.1-1.7 1.1-1.8 2.8-1.7 4.7zM201.2 9.7c.7 0 1.2 0 1.8 0 2.2 0 2.8.3 2.7 1.4 0 1.1-.6 1.3-2.8 1.3-.5 0-1 0-1.7 0 0 .6 0 1 0 1.4 0 4.3 0 8.6 0 12.8 0 1.4-.7 2.3-1.7 2.2-1 0-1.5-.7-1.6-2.2 0-.3 0-.6 0-.9 0-4 0-8 0-12 0-.4 0-.9 0-1.4-1.1-.1-2.5.1-2.5-1.4s1.3-1.4 2.4-1.4c.1-1.3.2-2.6.4-3.8.6-2.9 2.3-4.3 5.2-4.5.9-.1 1.7-.1 2.6-.1.9 0 1.5.6 1.5 1.5s-.6 1.4-1.5 1.5c-.5 0-1.1 0-1.6.1-2.2.2-3.1 1-3.2 3.2 0 .7 0 1.4 0 2.3zM159.8 9.7c1.1 0 2.2 0 3.2 0s1.7.3 1.7 1.4c0 1-.7 1.4-1.7 1.3-1 0-2 0-3.2 0 0 1.8 0 3.5 0 5.2 0 1.7 0 3.5.2 5.2.2 2 1 2.7 3 2.9.4 0 .8 0 1.2 0 .9 0 1.4.6 1.4 1.4 0 .9-.5 1.5-1.4 1.6-4.6.3-7.4-1.2-7.7-6.5-.2-3-.1-6.1-.1-9.1 0-.2 0-.3-.1-.5-1.1-.1-2.5.1-2.5-1.5 0-1.5 1.4-1.3 2.5-1.3 0-1.3 0-2.5 0-3.6 0-1.2.7-1.9 1.6-1.9.9 0 1.6.8 1.6 1.9.3 1 .3 2.2.3 3.5zM150.1 14c0 3.4 0 6.8 0 10.2 0 .9.3 1.5 1 2.1.4.3.8 1.3.6 1.6-.4.5-1.2 1-1.8.9-1.6-.2-2.6-1.2-3-2.7-.2-.6-.2-1.3-.2-1.9 0-6.9 0-13.7 0-20.6 0-1 .2-1.8 1.3-2.1 1.1-.4 2.1.5 2.1 2 0 3.5 0 7 0 10.5zM188.9 19.2c0-2.6 0-5.2 0-7.8 0-1.4.5-2 1.6-2s1.6.7 1.6 2c0 5.1 0 10.3 0 15.4 0 1.4-.6 2.1-1.7 2.1-1 0-1.5-.8-1.5-2.1 0-2.5 0-5 0-7.6zM190.5 5.5c-1.1 0-2.1-.9-2.1-2s.8-2 2-2.1c1.2 0 2.2.8 2.2 2s-.9 2.1-2.1 2.1z"/></g><linearGradient id="a" x1="9.549" x2="66.382" y1="15.736" y2="17.569" gradientUnits="userSpaceOnUse" gradientTransform="matrix(1 0 0 -1 0 34)"><stop offset="0" stop-color="#53C0B1"/><stop offset="1" stop-color="#2AB1DB"/></linearGradient><path fill="url(#a)" d="M23.9 12.6l11.3 11.3-11.3 11.3-11.3-11.3 11.3-11.3zM11.2 0L0 11.3l11.3 11.3 11.3-11.3L11.2 0zm26.6 23.9l11.3 11.3 11.3-11.3-11.3-11.3-11.3 11.3zM36.5 0L25.2 11.3l11.3 11.3 11.3-11.3L36.5 0zm25.2 0L50.4 11.3l11.3 11.3L73 11.3 61.7 0z"/></g></g></svg>
